<?xml version="1.0" encoding="utf-8"?>
<!-- Generator: Adobe Illustrator 13.0.1, SVG Export Plug-In . SVG Version: 6.00 Build 14948)  -->
<!DOCTYPE svg PUBLIC "-//W3C//DTD SVG 1.1//EN" "http://www.w3.org/Graphics/SVG/1.1/DTD/svg11.dtd">
<svg version="1.1" id="Layer_2" xmlns="http://www.w3.org/2000/svg" xmlns:xlink="http://www.w3.org/1999/xlink" x="0px" y="0px"
	 width="382.05px" height="788.488px" viewBox="0 0 382.05 788.488" enable-background="new 0 0 382.05 788.488"
	 xml:space="preserve">
<g>
	<g>
		<g>
			<path d="M192.8,245.577c-5.701,0-11.826-0.862-18.23-2.562v-32.062v-0.385l-0.111-0.372c-0.104-0.354-10.232-34.612-9.246-63.878
				h1.088c0.034,29.374,4.174,38.674,5.444,40.828l0.023,0.041l0.034,0.051c0.977,1.527,2.643,2.438,4.458,2.438
				c1.011,0,1.998-0.29,2.852-0.839c2.426-1.559,3.152-4.772,1.654-7.214c-0.382-0.818-3.889-9.041-3.887-35.308h42.367
				c-0.062,8.951-1.008,39.381-10.506,63.376l-0.188,0.468v0.505v32.137C206.275,243.781,200.977,245.577,192.8,245.577
				L192.8,245.577z"/>
		</g>
		<g>
			<path d="M221.878,143.674c0,0,0.865,37.828-10.684,66.992v33.787c0,0-6.191,3.768-18.396,3.768
				c-5.667,0-12.633-0.813-20.875-3.195v-34.073c0,0-10.974-36.673-9.242-67.281h6.27c-0.007,0.843-0.01,1.673-0.01,2.486
				c0.021,31.226,4.647,38.912,5.084,39.655c0.505,0.79,1.359,1.218,2.23,1.218c0.489,0,0.984-0.136,1.425-0.42
				c1.23-0.792,1.585-2.429,0.798-3.653h-0.004c-0.385-0.7-4.261-8.897-4.245-36.8c0-0.813,0.002-1.643,0.009-2.486L221.878,143.674
				 M216.562,148.962h-37.029c0.214,22.78,3.182,30.504,3.58,31.438c2.12,3.64,1.01,8.358-2.568,10.661
				c-1.285,0.826-2.766,1.26-4.286,1.26c-1.304,0-2.557-0.313-3.669-0.893c2.207,10.596,4.354,17.851,4.402,18.011l0.222,0.742
				v0.773v30.003c5.469,1.312,10.697,1.976,15.588,1.976c6.176,0,10.566-1.075,13.107-1.945v-30.322v-1.009l0.37-0.938
				C214.832,187.121,216.324,160.105,216.562,148.962L216.562,148.962z"/>
		</g>
	</g>
	<g>
		<path d="M123.301,284.34c0.978,0,1.425,0.976,1.425,1.912c0,1.058-0.488,2.034-1.425,2.034h-6.264v24.371
			c0,0.935-1.099,1.424-2.156,1.424c-1.099,0-2.156-0.489-2.156-1.424v-24.371h-6.307c-0.895,0-1.423-0.935-1.423-1.994
			c0-0.935,0.447-1.952,1.423-1.952H123.301L123.301,284.34z"/>
		<path d="M133.106,297.481h6.265c0.895,0,1.423,0.812,1.423,1.749c0,0.772-0.446,1.668-1.423,1.668h-6.265v9.356h12.083
			c0.896,0,1.425,0.896,1.425,1.954c0,0.895-0.449,1.871-1.425,1.871h-14.483c-0.936,0-1.913-0.489-1.913-1.424v-26.892
			c0-0.938,0.977-1.424,1.913-1.424h14.483c0.976,0,1.425,0.976,1.425,1.872c0,1.057-0.529,1.952-1.425,1.952h-12.083V297.481
			L133.106,297.481z"/>
		<path d="M148.77,312.29c0-0.122,0-0.244,0.041-0.365l8.096-26.363c0.326-0.976,1.504-1.465,2.726-1.465
			c1.222,0,2.441,0.489,2.768,1.465l8.055,26.363c0.041,0.121,0.082,0.244,0.082,0.365c0,1.017-1.506,1.791-2.728,1.791
			c-0.69,0-1.261-0.244-1.463-0.895l-1.668-5.777h-10.047l-1.669,5.777c-0.203,0.651-0.774,0.895-1.506,0.895
			C150.276,314.081,148.77,313.347,148.77,312.29z M163.702,303.95l-4.069-13.956l-4.068,13.956H163.702z"/>
		<path d="M187.38,303.216c-0.449,0.734-1.018,0.977-1.587,0.977c-0.53,0-1.1-0.243-1.464-0.977l-5.452-10.332v19.771
			c0,0.935-1.058,1.424-2.156,1.424c-1.058,0-2.156-0.489-2.156-1.424v-26.16c0-1.586,1.058-2.156,2.156-2.156
			c1.547,0,2.401,0.528,3.417,2.442l5.696,10.78l5.778-10.78c1.017-1.914,1.829-2.442,3.375-2.442c1.14,0,2.156,0.57,2.156,2.156
			v26.16c0,0.935-1.06,1.424-2.156,1.424c-1.058,0-2.155-0.489-2.155-1.424v-19.528L187.38,303.216z"/>
		<path d="M212.281,285.722c0-0.731,0.57-1.382,1.426-1.382h7.729c5.128,0,9.356,1.994,9.356,8.3c0,4.841-2.479,7.242-5.735,8.056
			l5.694,10.701c0.121,0.202,0.164,0.446,0.164,0.609c0,1.099-1.383,2.197-2.604,2.197c-0.732,0-1.303-0.488-1.71-1.262
			l-5.938-11.636h-4.108v11.353c0,0.935-1.06,1.424-2.155,1.424c-1.061,0-2.115-0.489-2.115-1.424L212.281,285.722L212.281,285.722z
			 M216.553,288.164v9.682h4.881c3.053,0,5.045-1.301,5.045-4.84c0-3.54-1.992-4.842-5.045-4.842H216.553z"/>
		<path d="M240.15,297.481h6.264c0.896,0,1.424,0.812,1.424,1.749c0,0.772-0.445,1.668-1.424,1.668h-6.264v9.356h12.082
			c0.896,0,1.424,0.896,1.424,1.954c0,0.895-0.447,1.871-1.424,1.871h-14.484c-0.935,0-1.912-0.489-1.912-1.424v-26.892
			c0-0.938,0.979-1.424,1.912-1.424h14.484c0.977,0,1.424,0.976,1.424,1.872c0,1.057-0.525,1.952-1.424,1.952H240.15V297.481z"/>
		<path d="M267.042,284.34c5.168,0,9.152,2.48,9.152,9.073v11.595c0,6.589-3.984,9.072-9.152,9.072h-7.203
			c-1.137,0-1.909-0.652-1.909-1.383v-26.975c0-0.731,0.772-1.382,1.909-1.382H267.042z M262.244,288.164v22.091h4.799
			c3.051,0,4.842-1.667,4.842-5.247v-11.595c0-3.58-1.788-5.249-4.842-5.249H262.244z"/>
	</g>
	<g>
		<path d="M163.379,648.088c4.719,0,8.707,3.213,8.707,8.096c0,8.747-13.182,11.597-13.182,16.274v1.544h11.96
			c0.732,0,1.423,0.857,1.423,1.873s-0.691,1.953-1.423,1.953h-14.483c-0.813,0-1.912-0.57-1.912-1.424v-3.946
			c0-6.592,13.304-9.887,13.304-16.151c0-1.994-1.302-4.271-4.395-4.271c-2.278,0-4.109,1.263-4.109,4.024
			c0,0.814-0.854,1.631-2.278,1.631c-1.138,0-1.952-0.57-1.952-2.401C155.04,650.936,158.945,648.088,163.379,648.088z"/>
		<path d="M176.316,668.999v-11.837c0-6.592,3.947-9.073,9.113-9.073c5.127,0,9.156,2.48,9.156,9.073v11.837
			c0,6.591-4.028,9.074-9.156,9.074C180.263,678.073,176.316,675.589,176.316,668.999z M190.272,657.162
			c0-3.58-1.83-5.249-4.843-5.249c-3.051,0-4.799,1.669-4.799,5.249v11.837c0,3.581,1.748,5.25,4.799,5.25
			c3.013,0,4.843-1.669,4.843-5.25V657.162z"/>
		<path d="M201.503,653.783l-1.426,1.79c-0.283,0.286-0.65,0.407-0.896,0.407c-0.854,0-1.468-0.896-1.468-1.75
			c0-0.611,0.326-1.304,0.855-1.669l4.23-4.066c0.285-0.286,0.611-0.447,1.099-0.447c0.896,0,1.912,0.527,1.912,1.423v26.937
			c0,0.935-1.099,1.424-2.155,1.424c-1.099,0-2.156-0.489-2.156-1.424v-22.623L201.503,653.783L201.503,653.783z"/>
		<path d="M219.119,659.806c5.168,0,9.153,2.278,9.153,8.544v0.771c0,6.51-4.069,8.951-9.112,8.951
			c-5.897,0-9.154-3.417-9.154-7.201c0-1.545,0.812-1.993,2.115-1.993c1.791,0,2.197,0.731,2.197,1.708
			c0,2.319,2.114,3.662,4.76,3.662c3.053,0,4.883-1.627,4.883-5.127v-0.771c0-3.46-1.83-5.127-4.842-5.127h-5.897
			c-1.425,0-1.831-0.649-1.831-1.67c0-0.283,0.041-0.688,0.082-0.975l0.936-11.065c0.082-0.895,0.366-1.423,0.977-1.423h12.082
			c0.896,0,1.345,0.978,1.345,1.91c0,0.977-0.446,1.912-1.345,1.912h-9.396l-0.568,7.894H219.119L219.119,659.806z"/>
	</g>
	<g>
		<path d="M107.212,326.464h17.765c20.708,0,22.405,8.035,22.405,20.821c0,8.938-3.055,16.18-10.976,18.104
			c10.07,2.15,13.578,9.391,13.578,19.574c0,14.483-0.339,25.799-21.047,25.799h-21.725V326.464L107.212,326.464z M117.85,362.447
			h8.485c9.053,0,10.072-5.884,10.072-14.258c0-9.844-1.811-13.126-11.089-13.126h-7.468V362.447z M117.85,402.503h8.147
			c12.787,0,13.125-5.997,13.125-17.086c0-9.732-1.698-14.937-11.428-14.937h-9.845L117.85,402.503L117.85,402.503z"/>
		<path d="M189.128,326.464v8.826h-21.16v26.592h17.765l-0.793,8.94h-16.972v31.343h21.725v8.601h-32.928v-84.301L189.128,326.464
			L189.128,326.464z"/>
		<path d="M229.064,326.464v8.826h-21.159v26.592h17.765l-0.793,8.94h-16.972v31.343h21.726v8.601h-32.928v-84.301L229.064,326.464
			L229.064,326.464z"/>
		<path d="M264.25,410.765l-8.035-37.792h-8.373v37.792H236.64v-84.301h17.877c18.783,0,21.5,6.562,21.5,21.613
			c0,12.673-1.698,21.272-9.618,23.536l10.295,39.15L264.25,410.765L264.25,410.765z M255.989,364.371
			c8.487,0,9.505-3.961,9.505-15.842c0-10.297-0.793-13.805-10.298-13.805h-7.354v29.646L255.989,364.371L255.989,364.371z"/>
		<path d="M116.964,455.464v69.218h-9.688v-94.968h15.043l16.443,75.338l16.698-75.338h14.149v94.968h-10.451v-69.218l-14.66,69.218
			H132.26L116.964,455.464z"/>
		<path d="M191.921,429.714v94.968h-12.621v-94.968H191.921z"/>
		<path d="M214.867,429.714v85.279h19.502v9.688h-32.25v-94.968L214.867,429.714L214.867,429.714z"/>
		<path d="M277.583,429.714v9.944h-23.836v29.955h20.014l-0.893,10.069h-19.121v35.311h24.474v9.688h-37.095v-94.968
			L277.583,429.714L277.583,429.714z"/>
	</g>
	<g>
		<path d="M315.667,619.699c-4.236-1.462-10.672-5.979-15.799-10.088c-3.301-2.637-6.109-5.093-7.709-6.522
			c1.273-2.446,1.879-5.042,1.872-7.632c-0.194-11.877-11.239-23.078-21.805-31.939c-7.632-6.302-15.192-11.222-18.899-13.523
			l4.198-4.917c0.854-0.998,0.733-2.494-0.267-3.347c-0.996-0.853-2.494-0.733-3.344,0.262l-4.727,5.535l-0.008-0.01l-0.135,0.17
			l-74.67,87.431c-0.852,0.999-0.734,2.494,0.262,3.345c0.448,0.383,0.995,0.57,1.541,0.57c0.67,0,1.335-0.283,1.804-0.832
			l35.304-41.329l0.618,0.306c12.705,6.283,21.392,12.479,26.876,17.066c2.745,2.293,4.69,4.184,5.936,5.491
			c0.1,0.103,0.189,0.198,0.281,0.295c-6.471,5.947-8.354,10.328-8.475,10.627l-0.208,0.495l0.026,0.533
			c0.236,2.464,1.613,4.522,3.384,7.141c5.353,7.573,15.386,17.565,15.433,17.624c15.284,15.298,25.928,17.812,26.352,17.901
			l2.216,0.496l8.331-30.957l25.373-22.862L315.667,619.699z M218.613,594.234l31.738-40.504
			c3.384,2.081,11.122,7.056,18.855,13.442c10.369,8.438,20.274,19.655,20.082,28.282c-0.013,1.79-0.379,3.488-1.213,5.173
			l-0.119-0.077h-0.006l-25.807,39.735c-0.346-5.941-2.85-13.37-9.824-21.367l-0.104-0.137
			C252.039,618.546,242.768,606.672,218.613,594.234z M245.606,636.09c-1.26-1.713-2.112-3.388-2.407-4.188
			c0.008-0.018,0.018-0.031,0.026-0.047c0.688-1.25,2.614-4.276,6.842-8.197c5.812,7.299,7.365,13.489,7.379,18.17
			c-0.006,2.875-0.592,5.177-1.202,6.828c-1.389-1.479-2.976-3.211-4.576-5.037C249.453,641.09,247.237,638.406,245.606,636.09z
			 M289.839,641.303l-7.449,27.669c-3.61-1.467-11.516-5.521-21.876-15.882c-0.003-0.002-0.244-0.243-0.617-0.623L289.425,607
			c3.935,3.51,13.262,11.546,21.154,15.614L289.839,641.303z"/>
	</g>
	<g>
		<path d="M210.818,635.115l-74.666-87.423l-0.139-0.177l-0.008,0.01l-4.722-5.529c-0.854-1.001-2.35-1.117-3.35-0.269
			c-0.994,0.851-1.11,2.352-0.261,3.345l4.201,4.919c-3.703,2.301-11.269,7.221-18.909,13.521
			c-10.562,8.863-21.607,20.064-21.799,31.938c-0.009,2.588,0.585,5.188,1.871,7.64c-1.599,1.433-4.411,3.888-7.711,6.522
			c-5.127,4.105-11.559,8.622-15.794,10.084l-3.765,1.332l25.372,22.861l8.332,30.953l2.219-0.493
			c0.421-0.088,11.067-2.604,26.357-17.905c0.016-0.022,4.5-4.504,9.059-9.698c2.278-2.605,4.573-5.383,6.364-7.924
			c1.77-2.614,3.149-4.679,3.382-7.142l0.027-0.539l-0.204-0.489c-0.119-0.298-2.008-4.678-8.475-10.632
			c0.088-0.094,0.182-0.19,0.28-0.291c3.735-3.916,13.75-13.13,32.811-22.557l0.621-0.308l35.295,41.325
			c0.473,0.553,1.139,0.834,1.809,0.834c0.545,0,1.093-0.188,1.542-0.567C211.552,637.607,211.667,636.115,210.818,635.115z
			 M124.686,653.091c-7.352,7.354-13.466,11.527-17.686,13.855c-1.731,0.96-3.145,1.602-4.195,2.026l-7.448-27.669L74.62,622.617
			c7.894-4.07,17.217-12.106,21.153-15.617l29.528,45.464C124.922,652.851,124.688,653.088,124.686,653.091z M140.609,629.723
			c0.666,0.935,1.103,1.656,1.365,2.129c0.01,0.021,0.019,0.035,0.029,0.056c-0.295,0.8-1.15,2.475-2.413,4.182
			c-2.828,4.028-7.326,9.037-10.645,12.573c-0.608-1.647-1.192-3.979-1.192-6.838c0.016-4.667,1.559-10.855,7.365-18.151
			C137.732,626.098,139.509,628.199,140.609,629.723z M132.981,618.784l-0.054,0.071c-7.021,8.024-9.529,15.479-9.874,21.433
			L97.245,600.55l-0.125,0.081c-0.837-1.686-1.204-3.384-1.208-5.178c-0.2-8.62,9.703-19.842,20.081-28.278
			c7.737-6.392,15.482-11.357,18.861-13.439l31.729,40.501C142.426,606.673,133.164,618.543,132.981,618.784z"/>
	</g>
	<g>
		<path d="M190.649,260.088l-0.094-0.005c-0.155-0.045-15.493-0.724-24.306-4.475l0,0c-2.852-1.295-5.743-2.975-6.203-6.616l0,0
			l-0.013-0.11v-37.371l-7.76-38.824l-0.012-0.096c-0.005-0.055-2.285-18.016-2.285-34.411l0,0c0-6.159,0.311-12.092,1.239-16.911
			l0,0c1.018-4.736,2.224-8.789,6.115-10.646l0,0l0.486-0.207h67.745l0.474,0.189c1.756,0.878,7.754,4.681,7.776,31.811l0,0
			c0,7.799-0.507,17.566-1.796,29.831l0,0L232,172.408l-0.025,0.122c0,0.005-3.729,17.188-8.604,39.293l0,0v37.149
			c0.002,0.044,0.004,0.1,0.004,0.166l0,0c0.084,1.361-1.049,4.485-5.516,6.592l0,0c-4.464,2.195-12.273,4.063-27.118,4.359l0,0
			L190.649,260.088L190.649,260.088z M165.827,249.269c0.478,0.439,1.368,0.984,2.529,1.485l0,0
			c2.325,1.011,5.671,1.856,9.024,2.462l0,0c6.359,1.162,12.715,1.548,13.388,1.581l0,0c12.53-0.241,19.59-1.715,23.325-3.188l0,0
			c3.308-1.317,3.88-2.38,3.984-2.626l0,0v-37.74l0.062-0.284c4.661-21.107,8.274-37.757,8.633-39.413l0,0
			c1.263-12.049,1.755-21.598,1.755-29.133l0,0c0-11.596-1.17-18.451-2.371-22.333l0,0c-0.814-2.625-1.611-3.854-2.043-4.374l0,0
			h-65.116c-0.73,0.67-1.981,2.963-2.586,6.559l0,0c-0.823,4.248-1.15,9.944-1.145,15.911l0,0
			c-0.005,15.139,2.017,31.95,2.224,33.616l0,0l7.839,39.183v37.646C165.353,248.714,165.449,248.912,165.827,249.269
			L165.827,249.269z M219.72,249.137l-1.081-0.045l0.146,0.045H219.72L219.72,249.137z"/>
	</g>
	<g>
		<path d="M191.018,610.569c-14.083,0-27.666-1.604-40.422-4.579c-0.105-0.024-0.204-0.057-0.309-0.08l-3.584,3.019
			c0.113,0.028,0.224,0.063,0.336,0.091c13.81,3.454,28.599,5.327,43.98,5.327c16.212,0,31.758-2.096,46.202-5.914l-3.404-3.046
			C220.369,608.729,205.985,610.569,191.018,610.569z M57.273,512.401V296.329c0-45.764,42.888-84.293,100.702-95.121l-0.739-3.702
			C97.628,208.671,53.497,248.67,53.497,296.329v216.072c0.002,28.952,16.283,55.088,42.431,73.645
			c0.231,0.164,0.48,0.315,0.716,0.48l1.771-3.38c-0.226-0.159-0.47-0.309-0.696-0.471C72.782,564.834,57.273,539.92,57.273,512.401
			z M226.447,197.823c-0.264,1.202-0.533,2.432-0.811,3.69c57.02,11.226,99.131,49.472,99.131,94.817v216.071
			c0,27.009-14.939,51.505-39.07,69.271l2.124,3.129c25.146-18.476,40.726-44.085,40.726-72.397V296.329
			C328.546,249.109,285.228,209.409,226.447,197.823z"/>
	</g>
	<g>
		<path d="M217.641,593.807c-8.798,1.569-17.952,2.429-27.369,2.429c-7.176,0-14.196-0.513-21.028-1.437l0.18,0.278l-4.578,2.712
			l-0.28,0.151c8.294,1.347,16.89,2.066,25.707,2.066c10.32,0,20.34-0.985,29.922-2.813l-3.645-2.797L217.641,593.807z
			 M66.608,303.705v201.319c0,27.23,14.945,51.769,38.851,69.089l2.871-2.601C85,554.863,70.385,531.222,70.385,505.024V303.705
			c0-42.35,38.134-78.043,89.65-88.265v-3.847C106.357,221.957,66.608,259.26,66.608,303.705z M223.367,212.188v3.869
			c50.062,10.957,86.801,46.088,86.801,87.648v201.319c0,25.372-13.701,48.349-35.756,64.896l2.791,2.646
			c22.68-17.222,36.742-41.117,36.742-67.543V303.705C313.945,260.054,275.593,223.305,223.367,212.188z"/>
	</g>
	<g>
		<path d="M84.821,497.743V310.988c0-38.133,31.769-70.418,75.214-80.811v-3.879c-45.6,10.553-78.989,44.461-78.989,84.69v186.755
			c0,25.964,13.91,49.301,36.032,65.426l3.252-2.351C98.57,545.356,84.821,522.816,84.821,497.743z M155.748,577.44l3.243,4.753
			c9.867,2.366,20.306,3.657,31.125,3.657c12.377,0,24.26-1.688,35.352-4.757l3.808-5.088c-12.116,3.901-25.323,6.071-39.16,6.071
			C178.081,582.077,166.526,580.431,155.748,577.44z M223.367,227.06v3.925c41.814,11.177,72.053,42.805,72.053,80.003v186.755
			c0,24.282-12.897,46.187-33.477,61.589l2.993,2.493c21.079-16.064,34.258-38.825,34.258-64.082V310.988
			C299.194,271.693,267.345,238.42,223.367,227.06z"/>
	</g>
</g>
</svg>
